<svg width="135" height="82" viewBox="0 0 135 82" fill="none" xmlns="http://www.w3.org/2000/svg">
<g clip-path="url(#clip0_4112_5870)">
<path d="M30 54.3278L41.3038 58.4662L40.9644 63.7364L54.1393 65.329C54.1393 65.329 62.9331 61.886 80.1181 61.886C98.5723 61.886 108.817 65.329 108.817 65.329L124.48 63.9932L121.788 58.8023L135 54.5223C135 54.5223 85.3721 34.7285 64.9013 36.7407C44.4304 38.7528 43.4037 40.1562 36.7087 46.0278C30.0126 51.8993 30 54.3278 30 54.3278Z" fill="black"/>
<path d="M131.066 51.7535C128.657 50.9778 127.476 50.6238 125.048 49.9453L124.076 49.6748L123.996 48.6116L123.906 49.623L122.254 49.1939C119.792 48.5546 118.583 48.2661 116.094 47.725L115.59 47.6151L115.049 47.501C112.64 46.9937 111.462 46.7697 109.045 46.3575L108.136 46.2022L107.243 46.0605C104.824 45.6759 103.638 45.511 101.201 45.2183L100.091 45.0851L99.7499 45.0513C96.4598 44.7226 93.2552 44.468 89.9556 44.2714L89.7722 44.2608L88.9384 44.2249C86.4431 44.1192 85.2224 44.0917 82.7188 44.0833L81.3905 44.0791L81.2767 42.6492L81.1502 44.0812L79.8494 44.1002C77.3225 44.1372 76.0881 44.1805 73.5592 44.3168L72.3648 44.3813L71.1272 44.4669C68.6815 44.637 67.4903 44.7427 65.0584 45.0059L64.098 45.1094L63.1092 45.2288C60.6225 45.5279 59.4102 45.6981 56.935 46.0954L55.3906 46.3427L55.2926 45.1094L55.183 46.3829L54.0972 46.5773C51.5935 47.0254 50.377 47.2674 47.8987 47.8138L45.8947 48.2555L46.0012 47.4323C45.7798 47.613 45.5416 47.7789 45.2886 47.93C44.4263 48.4426 42.9368 48.9636 40.1474 49.7255C37.395 50.4779 36.0573 50.8763 33.3323 51.7535L31.4453 52.3611V26.2362L32.4415 25.916C34.8028 25.1561 36.032 24.7863 38.4218 24.1163C40.2107 23.6153 41.6876 23.3606 42.8124 23.3606C42.9389 23.3606 43.0601 23.3638 43.176 23.3702C44.5581 23.4431 45.7408 24.0518 46.5968 25.1329C47.4096 26.1601 47.8049 27.8023 47.8049 30.1516C47.8049 31.8044 47.5182 33.0356 46.9268 33.9159C46.8224 34.0712 46.7043 34.2224 46.5705 34.3724C46.7982 34.5405 46.9995 34.7328 47.1745 34.9494C47.3115 35.1196 47.4359 35.3066 47.5466 35.5116C48.1106 31.164 49.3714 21.4574 49.3714 21.4574L50.3802 21.2523C53.3066 20.6584 56.2898 20.148 59.2468 19.7348L59.8498 19.6502V19.6302L61.119 19.478C65.5739 18.9454 70.1047 18.5438 74.587 18.2828L76.1134 18.194V18.2194L76.5604 18.2024C78.3936 18.1338 80.2552 18.0989 82.0968 18.0989C83.2374 18.0989 84.3907 18.1126 85.526 18.139L86.7383 18.1676C86.7383 18.1676 88.0434 26.7868 88.6042 30.5024V18.2236L90.1169 18.2976C92.5805 18.418 93.8529 18.5036 96.3038 18.7182L97.6194 18.8323V37.3304C98.3626 37.4001 99.0119 37.4678 99.9375 37.5703V19.0669L101.552 19.2613C104.004 19.5562 105.269 19.7316 107.705 20.1195L107.854 20.1427V20.1332L108.645 20.2685L108.918 20.3118V20.315L109.541 20.4217C111.98 20.8381 113.238 21.078 115.654 21.5873L116.796 21.8272V32.8876L118.266 22.1559L119.814 22.5194C122.736 23.2064 125.674 23.9926 128.544 24.8571L129.426 25.1223L129.553 26.0269C130.687 34.0839 131.818 42.142 132.944 50.2L133.261 52.4594L131.071 51.7545L131.066 51.7535ZM72.466 39.6078C73.0858 34.9991 73.7057 30.3915 74.3266 25.7839C73.6098 25.8187 73.069 25.8473 72.466 25.8853V39.6088V39.6078ZM63.4592 37.7499V26.6917C62.9385 26.7529 62.4377 26.8164 61.7884 26.8998C62.346 30.5172 62.9026 34.1325 63.4592 37.7499Z" fill="white"/>
<path d="M82.0915 19.5276C83.2247 19.5276 84.358 19.5403 85.488 19.5667C86.6603 27.3098 87.8304 35.054 88.9995 42.7971C86.4905 42.6914 85.234 42.6629 82.723 42.6545C82.5912 40.9921 82.5248 40.1604 82.393 38.4981C82.2718 38.4981 82.16 38.4981 82.0536 38.4981C81.3852 38.4981 80.9541 38.5013 80.1961 38.5108C80.0486 40.1752 79.9748 41.0069 79.8272 42.6714C77.2877 42.7083 76.0174 42.7527 73.4801 42.8901C74.5226 35.1364 75.5662 27.3838 76.6109 19.6301C78.4336 19.5614 80.2636 19.5276 82.0926 19.5276M74.6681 19.7094V24.336C73.2102 24.4047 72.4818 24.447 71.026 24.5474C71.026 30.7116 71.026 36.877 71.026 43.0412C68.574 43.2114 67.348 43.3202 64.9023 43.5844C64.9023 37.4202 64.9023 31.2548 64.9023 25.0906C63.456 25.247 62.7328 25.3336 61.2886 25.5228V20.8962C65.7467 20.3635 70.1858 19.9693 74.6681 19.7094ZM90.042 19.7242C92.4972 19.8436 93.7232 19.9271 96.173 20.1405C96.173 26.3048 96.173 32.4701 96.173 38.6344C97.6626 38.7644 98.4068 38.8373 99.8942 39.0022C99.8942 40.8526 99.8942 41.7784 99.8942 43.6288C96.6053 43.3012 93.3416 43.0412 90.042 42.8447V19.7252M101.375 20.6795C103.819 20.9722 105.039 21.1424 107.472 21.5292C107.472 24.2853 107.472 27.0414 107.472 29.7975C108.2 29.9138 108.564 29.9729 109.291 30.0976C109.291 27.3415 109.291 24.5854 109.291 21.8293C111.721 22.2446 112.933 22.475 115.349 22.9833C115.349 30.6905 115.349 38.3977 115.349 46.1038C112.933 45.5955 111.721 45.3641 109.291 44.9498C109.291 41.7129 109.291 38.4759 109.291 35.2389C108.564 35.1142 108.2 35.0551 107.472 34.9388C107.472 38.1758 107.472 41.4127 107.472 44.6497C105.039 44.2629 103.818 44.0927 101.375 43.8C101.375 36.0928 101.375 28.3867 101.375 20.6795ZM59.4449 21.1487C60.6087 28.7027 61.7715 36.2566 62.9342 43.8106C60.4369 44.1118 59.1909 44.2861 56.7041 44.6856C56.5734 43.0444 56.508 42.2233 56.3773 40.5831C55.5076 40.7247 55.0722 40.7987 54.2036 40.952C54.0571 42.6397 53.9843 43.484 53.8389 45.1728C51.3289 45.6219 50.0776 45.8713 47.5835 46.4209C48.6081 38.4981 49.6359 30.5753 50.6648 22.6525C53.569 22.0639 56.5091 21.5609 59.4439 21.1498M54.1256 36.8664C54.9616 36.7185 55.3801 36.6476 56.2171 36.5103C55.8355 33.3314 55.5656 30.142 55.2915 26.9537C54.8372 30.2488 54.3976 33.5512 54.1256 36.8664ZM119.475 23.9101C122.374 24.5918 125.269 25.3664 128.119 26.2245C129.254 34.2815 130.384 42.3385 131.511 50.3965C129.092 49.6177 127.878 49.2531 125.438 48.5725C125.309 46.8742 125.246 46.0256 125.117 44.3274C124.263 44.0906 123.835 43.9754 122.978 43.7514C122.834 45.3757 122.762 46.1884 122.618 47.8127C120.141 47.1701 118.897 46.8732 116.401 46.331C117.426 38.8574 118.451 31.3838 119.474 23.9101M124.96 40.1858C124.588 36.8727 124.32 33.5491 124.049 30.2266C123.598 33.3515 123.164 36.486 122.901 39.6331C123.726 39.8487 124.138 39.9596 124.96 40.1858ZM42.8091 24.7894C42.9082 24.7894 43.0042 24.7915 43.0959 24.7968C44.0699 24.8475 44.8574 25.2565 45.4583 26.0153C46.0591 26.774 46.3596 28.1542 46.3596 30.1526C46.3596 31.5032 46.1466 32.4934 45.7229 33.1254C45.2991 33.7563 44.4621 34.3607 43.2171 34.9568C43.2835 34.9557 43.3478 34.9547 43.4121 34.9547C44.6929 34.9547 45.5721 35.258 46.0444 35.8434C46.5398 36.4574 46.7886 37.5195 46.7886 39.0244V41.1675C46.7886 42.7305 46.6094 43.9279 46.252 44.7617C45.8947 45.5966 45.3244 46.2423 44.5443 46.7062C43.7632 47.1701 42.164 47.6922 39.7616 48.3495C36.9965 49.1051 35.6208 49.5141 32.8842 50.3955V27.2739C35.2445 26.5141 36.4304 26.1569 38.8107 25.49C40.5142 25.0134 41.8488 24.7883 42.8102 24.7883M38.8255 34.5827C39.0806 34.5013 39.2788 34.4421 39.4211 34.403C40.0072 34.2413 40.3814 33.9962 40.5427 33.6622C40.704 33.3293 40.7841 32.4765 40.7841 31.1058C40.7841 30.383 40.7177 29.8926 40.5849 29.6379C40.452 29.3833 40.2792 29.2459 40.0662 29.2279C40.0441 29.2258 40.0198 29.2247 39.9935 29.2247C39.7658 29.2247 39.3757 29.2955 38.8255 29.4414V34.5827ZM38.8255 44.6507C39.6667 44.3865 40.2033 44.1097 40.4362 43.8095C40.6681 43.5094 40.7841 42.8933 40.7841 41.9601V39.8043C40.7841 38.8141 40.6797 38.2413 40.471 38.0881C40.3835 38.0236 40.237 37.9919 40.0314 37.9919C39.7447 37.9919 39.342 38.0553 38.8255 38.1832V44.6518M82.0915 16.67C80.583 16.67 79.0597 16.6933 77.5502 16.7387V16.6796L74.8262 16.8381L74.0735 16.8666L74.0714 16.8825C70.0119 17.1255 65.9133 17.4848 61.8684 17.9509L61.8642 17.9245L60.6477 18.0946L58.4045 18.363V18.4095C55.6267 18.81 52.8321 19.2951 50.0871 19.851L48.0684 20.26L47.8048 22.2848C47.7279 22.8776 47.6509 23.4705 47.574 24.0634C46.4682 22.7646 44.9776 22.0322 43.2487 21.9413C43.1064 21.9339 42.9588 21.9297 42.8102 21.9297C41.5357 21.9297 39.9713 22.1939 38.0275 22.7392C35.6176 23.4145 34.3769 23.7875 31.9934 24.5548L30 25.1984V54.3288L33.775 53.1135C36.4715 52.2459 37.7966 51.8507 40.5279 51.1046C42.1239 50.6681 43.3088 50.3077 44.2165 49.977L44.2017 50.0932L48.2096 49.2108C50.669 48.6697 51.8739 48.4288 54.3522 47.9849L55.7585 47.7334L57.1648 47.5083C59.6167 47.1152 60.8174 46.9461 63.2821 46.6491L64.2477 46.5329L65.2133 46.4283C67.6242 46.1672 68.8048 46.0626 71.2262 45.8946L72.4301 45.8111L73.6371 45.7456C76.1397 45.6103 77.3636 45.568 79.8693 45.531L81.2893 45.5099L82.7124 45.5141C85.1897 45.5226 86.3999 45.5501 88.8751 45.6547L89.6963 45.6896L89.8681 45.7001C93.1486 45.8956 96.3333 46.1482 99.6044 46.4748L99.9195 46.5065L101.026 46.6396C103.438 46.9292 104.614 47.093 107.013 47.4745L107.905 47.6161L108.8 47.7693C111.199 48.1794 112.367 48.4013 114.748 48.9033L115.269 49.0132L115.784 49.1252C118.249 49.661 119.447 49.9474 121.888 50.5804L123.276 50.9408L124.657 51.3265C127.066 51.9986 128.238 52.3505 130.62 53.1178L134.999 54.5275L134.368 50.0076C133.234 41.9041 132.094 33.77 130.976 25.8335L130.721 24.0253L128.958 23.4948C126.056 22.6219 123.09 21.8272 120.141 21.1339L118.231 20.6859V20.6753L117.789 20.5823L117.045 20.4079L117.043 20.4259L115.947 20.1955C113.704 19.7231 112.45 19.4811 110.354 19.1186V19.1007L108.855 18.8629L106.406 18.4444V18.4772C104.827 18.2362 103.63 18.0787 101.72 17.8494L98.4901 17.4616V17.4806L96.4239 17.3009C93.9477 17.0854 92.6637 16.9976 90.1822 16.8772L87.1568 16.7292V16.7535L85.5544 16.7165C84.4075 16.6901 83.2416 16.6764 82.0905 16.6764L82.0915 16.67Z" fill="black"/>
<path d="M55.4224 35.9164C55.3328 35.1397 55.2495 34.3608 55.1704 33.5809C55.0808 34.3873 54.9986 35.1925 54.9248 36.001C55.0893 35.9725 55.2505 35.945 55.4224 35.9164Z" fill="url(#paint0_linear_4112_5870)"/>
<path d="M53.1674 44.5663L53.4858 40.8897C53.5132 40.5674 53.7567 40.3042 54.0772 40.2472C54.95 40.0929 55.3864 40.0189 56.2603 39.8773C56.4585 39.8445 56.663 39.8963 56.8222 40.02C56.9814 40.1436 57.0805 40.3264 57.0963 40.5262L57.3609 43.8572C59.1466 43.5761 60.3073 43.4133 62.1099 43.1914C61.4068 38.625 60.7036 34.0586 60.0005 29.4922C58.7482 29.6454 57.5085 29.8124 56.2814 29.992C56.4722 32.131 56.6788 34.2943 56.9339 36.4258C56.9793 36.8052 56.7157 37.1529 56.3352 37.2152C55.5013 37.3516 55.0849 37.4224 54.2532 37.5693C54.211 37.5766 54.1689 37.5809 54.1267 37.5809C53.9486 37.5809 53.7757 37.5154 53.6418 37.3949C53.4763 37.2459 53.3899 37.0292 53.4078 36.8084C53.5859 34.6356 53.8368 32.484 54.1151 30.3239C52.8322 30.5289 51.564 30.7477 50.3117 30.9812C49.6834 35.8224 49.0551 40.6625 48.429 45.5036C50.1536 45.1306 51.3195 44.9002 53.1674 44.5663Z" fill="url(#paint1_linear_4112_5870)"/>
<path d="M89.3211 40.0991V28.3392C89.0807 28.3297 88.8414 28.317 88.6 28.3085V30.5024C88.5062 29.8831 88.3913 29.1254 88.2658 28.2948C88.0223 28.2863 87.7767 28.2832 87.5332 28.2758C88.1288 32.2176 88.7255 36.1584 89.3211 40.1002V40.0991Z" fill="url(#paint2_linear_4112_5870)"/>
<path d="M70.3039 42.3776V28.5399C68.729 28.6382 67.1667 28.7555 65.6213 28.8939V42.7908C67.3713 42.6069 68.514 42.5054 70.3039 42.3776Z" fill="url(#paint3_linear_4112_5870)"/>
<path d="M47.7248 31.4842C47.4739 31.5349 47.2283 31.5899 46.9795 31.6427C46.8635 32.4174 46.6464 33.0388 46.3227 33.5207C46.0898 33.8683 45.763 34.2023 45.3381 34.5288C45.8726 34.7222 46.2974 35.0118 46.6073 35.3954C47.2145 36.1478 47.5097 37.3346 47.5097 39.0223V41.1655C47.5097 41.2384 47.5097 41.3103 47.5087 41.3821C47.9451 38.0099 48.3836 34.6377 48.8211 31.2644C48.5723 31.313 48.3214 31.3606 48.0747 31.4102C47.8734 32.9574 47.6858 34.4062 47.5424 35.5095C47.4317 35.3056 47.3084 35.1185 47.1703 34.9473C46.9953 34.7307 46.7939 34.5383 46.5662 34.3703C46.7001 34.2203 46.8182 34.0691 46.9225 33.9138C47.3421 33.2892 47.6046 32.4839 47.7248 31.481V31.4842Z" fill="url(#paint4_linear_4112_5870)"/>
<path d="M81.4232 33.6866C81.3304 32.8654 81.2429 32.0422 81.1607 31.2179C81.0669 32.0401 80.9804 32.8633 80.9045 33.6897C81.0806 33.6887 81.2471 33.6876 81.4232 33.6866Z" fill="url(#paint5_linear_4112_5870)"/>
<path d="M55.1809 46.3828L55.2905 45.1094L55.3885 46.3427L56.9329 46.0954C59.4081 45.698 60.6203 45.5279 63.1071 45.2288L64.0959 45.1094L65.0563 45.0058C67.4882 44.7427 68.6784 44.637 71.1251 44.4669L72.3627 44.3813L73.557 44.3168C76.086 44.1805 77.3204 44.1372 79.8472 44.1002L81.1481 44.0811L81.2746 42.6492L81.3884 44.079L82.7167 44.0833C85.2203 44.0917 86.441 44.1192 88.9362 44.2249L89.7701 44.2608L89.9535 44.2714C93.253 44.4679 96.4577 44.7226 99.7478 45.0513L100.089 45.0851L101.199 45.2183C103.636 45.511 104.821 45.6758 107.241 46.0605L108.134 46.2021L109.043 46.3575C111.46 46.7696 112.638 46.9947 115.047 47.5009L115.588 47.6151L116.092 47.725C118.58 48.266 119.79 48.5546 122.252 49.1939L123.904 49.623L123.994 48.6116L124.074 49.6747L125.046 49.9453C127.473 50.6227 128.655 50.9778 131.064 51.7535L133.253 52.4583L132.937 50.1989C132.251 45.2933 131.561 40.3887 130.872 35.4831C130.62 35.3985 130.363 35.3172 130.109 35.2337C130.814 40.2545 131.52 45.2753 132.222 50.2972C132.256 50.5413 132.161 50.7844 131.971 50.9429C131.84 51.0517 131.675 51.1099 131.509 51.1099C131.434 51.1099 131.359 51.0982 131.286 51.075C128.866 50.2961 127.68 49.9389 125.241 49.2594C124.949 49.1781 124.74 48.9244 124.717 48.6254L124.434 44.8811C124.141 44.8008 123.889 44.7321 123.619 44.6603L123.335 47.8761C123.316 48.0853 123.205 48.2766 123.032 48.3981C122.858 48.5197 122.64 48.5588 122.434 48.5049C119.96 47.8634 118.746 47.5738 116.246 47.0296C116.039 46.9842 115.87 46.8542 115.773 46.6819C115.608 46.8024 115.399 46.8478 115.198 46.8045C112.777 46.2951 111.593 46.07 109.167 45.6558C108.821 45.5966 108.568 45.2996 108.568 44.9519V35.8435C108.438 35.8213 108.315 35.8012 108.191 35.7811V44.6518C108.191 44.8611 108.098 45.0597 107.938 45.195C107.777 45.3313 107.564 45.3884 107.356 45.3567C104.925 44.9699 103.734 44.804 101.287 44.5102C100.925 44.4669 100.652 44.1625 100.652 43.8011V29.1624C100.412 29.137 100.173 29.1096 99.9312 29.0853V37.5692C99.0056 37.4667 98.3563 37.3991 97.6131 37.3293V28.8665C97.3738 28.8454 97.1324 28.8285 96.892 28.8084V37.9813C97.9841 38.0786 98.7041 38.1525 99.9723 38.2931C100.337 38.3333 100.613 38.6387 100.613 39.0033V43.6299C100.613 43.8317 100.527 44.0241 100.376 44.1593C100.225 44.2946 100.023 44.3612 99.8205 44.3401C96.5199 44.0103 93.3068 43.7557 89.9967 43.558C89.7964 43.5464 89.6193 43.4534 89.496 43.3139C89.3547 43.4481 89.165 43.5168 88.9668 43.5115C86.46 43.4059 85.234 43.3773 82.7188 43.3689C82.3435 43.3678 82.0315 43.0814 82.003 42.7105L81.7258 39.2125C81.4243 39.2125 81.1586 39.2146 80.8561 39.2178L80.544 42.7337C80.5114 43.0983 80.2067 43.3805 79.8367 43.3858C77.2983 43.4228 76.0586 43.4661 73.518 43.6035C73.3009 43.6162 73.0953 43.5316 72.9498 43.3752C72.8044 43.2188 72.7359 43.0064 72.7643 42.7961C73.4126 37.9708 74.063 33.1444 74.7124 28.3191C74.4689 28.3286 74.2243 28.336 73.9819 28.3466C73.4759 32.1003 72.9709 35.854 72.466 39.6077V28.4174C72.2246 28.4301 71.9853 28.4449 71.7449 28.4586V43.0434C71.7449 43.4185 71.4519 43.7303 71.0745 43.7557C68.6172 43.9269 67.4208 44.0325 64.9783 44.2967C64.7748 44.3189 64.5714 44.2534 64.4185 44.1181C64.2656 43.9829 64.1792 43.7895 64.1792 43.5866V29.0314C63.9389 29.0546 63.6975 29.0758 63.4582 29.1001V37.7499C63.0217 34.9135 62.5843 32.077 62.1478 29.2406C61.9075 29.267 61.6703 29.2956 61.431 29.323C62.1689 34.1167 62.9068 38.9092 63.6447 43.7028C63.6743 43.8941 63.6247 44.0885 63.5066 44.2428C63.3886 44.3971 63.2136 44.4965 63.0196 44.5197C60.5213 44.8209 59.3037 44.9921 56.818 45.3905C56.6198 45.4222 56.4153 45.3704 56.2572 45.2468C56.099 45.1231 55.9999 44.9403 55.9841 44.7416L55.7195 41.4149C55.4349 41.4624 55.1756 41.5068 54.8741 41.5586L54.5568 45.2331C54.5294 45.5543 54.2869 45.8175 53.9665 45.8745C51.4512 46.3247 50.2295 46.5678 47.7395 47.1173C47.5097 47.167 47.2704 47.1046 47.0975 46.9472C46.9246 46.7908 46.8382 46.5593 46.8688 46.3289C46.9457 45.7329 47.0227 45.1379 47.0996 44.5419C47.0438 44.7173 46.9826 44.8843 46.9152 45.0407C46.4998 46.0098 45.8273 46.776 44.9144 47.3181C44.1227 47.7894 42.6384 48.303 39.9524 49.0375C37.1863 49.7931 35.8433 50.1936 33.1067 51.0739C33.0339 51.0972 32.9591 51.1088 32.8842 51.1088C32.7335 51.1088 32.5849 51.0623 32.4605 50.9725C32.2739 50.8383 32.1632 50.6227 32.1632 50.3944V35.6596C31.9239 35.7409 31.6793 35.8202 31.4421 35.9037V52.3611L33.3291 51.7535C36.0541 50.8763 37.3918 50.4779 40.1443 49.7255C42.9336 48.9625 44.4231 48.4425 45.2854 47.93C45.5395 47.7789 45.7767 47.6129 45.998 47.4322L45.8916 48.2555L47.8955 47.8137C50.3739 47.2674 51.5904 47.0254 54.094 46.5773L55.1798 46.3828H55.1809Z" fill="url(#paint6_linear_4112_5870)"/>
<path d="M90.762 28.4015V42.1736C93.5892 42.349 96.3543 42.5688 99.1731 42.8415V39.6426C98.08 39.5242 97.3663 39.4555 96.1097 39.3467C95.7376 39.3139 95.4519 39.0053 95.4519 38.6355V28.6921C93.9034 28.5759 92.34 28.4786 90.763 28.4015H90.762Z" fill="url(#paint7_linear_4112_5870)"/>
<path d="M121.977 46.9081L122.262 43.688C122.281 43.4777 122.392 43.2875 122.566 43.166C122.74 43.0445 122.959 43.0064 123.165 43.0603C124.025 43.2854 124.455 43.4017 125.313 43.6384C125.605 43.7197 125.816 43.9734 125.838 44.2735L126.121 48.0198C127.894 48.5176 129.018 48.8515 130.64 49.3662C129.959 44.4933 129.273 39.6204 128.589 34.7476C127.435 34.3883 126.26 34.0416 125.064 33.7088C125.246 35.8371 125.441 37.9856 125.679 40.1055C125.705 40.3412 125.612 40.5747 125.43 40.728C125.298 40.8389 125.132 40.8981 124.963 40.8981C124.899 40.8981 124.834 40.8897 124.77 40.8717C123.951 40.6466 123.542 40.5356 122.721 40.3211C122.383 40.2334 122.157 39.9164 122.187 39.5718C122.367 37.4149 122.63 35.2453 122.917 33.1296C121.655 32.802 120.373 32.4882 119.069 32.1891L117.208 45.7731C119.042 46.1757 120.204 46.4516 121.977 46.907V46.9081Z" fill="url(#paint8_linear_4112_5870)"/>
<path d="M124.132 39.2167C124.049 38.44 123.972 37.6622 123.899 36.8833C123.816 37.6199 123.74 38.3586 123.674 39.0941C123.834 39.1364 123.983 39.1765 124.132 39.2167Z" fill="url(#paint9_linear_4112_5870)"/>
<path d="M116.069 31.5402V43.4555L117.656 31.8762C117.42 31.8244 117.187 31.7716 116.95 31.7209L116.789 32.8876V31.6881C116.551 31.6374 116.309 31.5898 116.068 31.5412L116.069 31.5402Z" fill="url(#paint10_linear_4112_5870)"/>
<path d="M114.628 45.2236V31.2475C113.09 30.9463 111.525 30.6674 109.939 30.4074C109.896 30.4972 109.834 30.5786 109.755 30.6441C109.593 30.7804 109.378 30.8375 109.168 30.8016C108.444 30.6779 108.082 30.6187 107.357 30.5025C107.048 30.4528 106.813 30.214 106.761 29.9181C105.224 29.6983 103.669 29.4964 102.095 29.3168V43.166C103.883 43.3848 105.021 43.5412 106.751 43.8117V34.9379C106.751 34.7286 106.843 34.5299 107.004 34.3947C107.165 34.2583 107.377 34.2002 107.586 34.233C108.317 34.3492 108.683 34.4095 109.413 34.5342C109.759 34.5933 110.012 34.8903 110.012 35.238V44.3475C111.79 44.654 112.92 44.8675 114.628 45.2226V45.2236Z" fill="url(#paint11_linear_4112_5870)"/>
<path d="M39.8912 33.3547C39.8912 33.3547 39.8975 33.3399 39.9038 33.3209C39.7847 33.3526 39.6635 33.3833 39.5454 33.415V33.6052C39.8037 33.4942 39.8743 33.3896 39.8912 33.3537V33.3547Z" fill="url(#paint12_linear_4112_5870)"/>
<path d="M79.1651 41.9676L79.4771 38.4485C79.5098 38.0828 79.8155 37.8017 80.1855 37.7964C80.9477 37.7869 81.381 37.7837 82.0514 37.7837H82.393C82.7682 37.7848 83.0803 38.0712 83.1098 38.4421L83.387 41.9433C85.2139 41.9538 86.3819 41.9792 88.155 42.0479C87.4603 37.4435 86.7635 32.8401 86.0667 28.2356C84.8249 28.2071 83.5778 28.1881 82.3223 28.1838C82.5058 30.2256 79.8145 30.2361 80.0843 28.1881C78.7719 28.2007 77.4679 28.2261 76.1713 28.2663C75.5493 32.8876 74.9263 37.509 74.3054 42.1303C76.1165 42.0373 77.3014 41.9982 79.162 41.9665L79.1651 41.9676Z" fill="url(#paint13_linear_4112_5870)"/>
<path d="M44.1732 46.0923C44.8279 45.7034 45.2906 45.176 45.5879 44.4817C45.9063 43.7398 46.0676 42.6239 46.0676 41.1665V39.0234C46.0676 37.3631 45.7492 36.6202 45.4814 36.2884C45.1357 35.8593 44.3556 35.6501 43.2329 35.6702C42.9008 35.6881 42.5962 35.4493 42.5161 35.1227C42.437 34.7962 42.5983 34.4591 42.904 34.3122C44.0341 33.7711 44.7804 33.2385 45.123 32.7281C45.2305 32.5674 45.3476 32.3265 45.4424 31.9703C44.0847 32.2715 42.7469 32.5886 41.4334 32.9215C41.3734 33.5059 41.2827 33.7859 41.1931 33.9719C40.939 34.4971 40.4088 34.8733 39.614 35.0932C39.479 35.1301 39.2882 35.1883 39.0458 35.2654C38.9741 35.2887 38.8992 35.2992 38.8254 35.2992C38.6747 35.2992 38.525 35.2527 38.4006 35.1618C38.2151 35.0276 38.1044 34.8131 38.1044 34.5848V33.8166C36.5706 34.2488 35.0684 34.7021 33.6052 35.1788V49.4138C35.7715 48.7247 37.1156 48.3316 39.5697 47.6605C41.133 47.2325 43.312 46.6059 44.1732 46.0933V46.0923ZM38.8254 45.3662C38.6736 45.3662 38.525 45.3187 38.3996 45.2278C38.214 45.0936 38.1044 44.8791 38.1044 44.6518V38.1832C38.1044 37.8556 38.3289 37.5703 38.6505 37.49C39.828 37.1983 40.4773 37.2025 40.9021 37.5153C41.3365 37.8345 41.5051 38.477 41.5051 39.8043V41.9602C41.5051 43.0804 41.347 43.8064 41.0086 44.2439C40.6808 44.6688 40.0557 45.0143 39.0437 45.3324C38.972 45.3546 38.8992 45.3652 38.8265 45.3652L38.8254 45.3662Z" fill="url(#paint14_linear_4112_5870)"/>
<path d="M39.5454 38.7581V43.6003C39.7699 43.4809 39.8437 43.3996 39.8627 43.3753C39.8711 43.3647 40.0619 43.1037 40.0619 41.9602V39.8043C40.0619 39.1977 40.0198 38.8723 39.985 38.7074C39.888 38.7106 39.7468 38.7232 39.5454 38.7581Z" fill="url(#paint15_linear_4112_5870)"/>
<path d="M120.847 61.9283C119.41 61.5763 118.706 61.4125 117.257 61.0923L116.596 60.9465L115.936 58.7547C115.764 58.7177 115.601 58.6839 115.437 58.649L114.777 60.5608L113.786 60.3642C112.343 60.0778 111.634 59.9457 110.179 59.69L109.091 59.4998L108.127 59.3433C106.67 59.1077 105.963 59.0009 104.523 58.8002L103.798 58.6998L103.582 58.0065C102.895 55.8084 102.208 53.6102 101.519 51.4121V58.4049L100.236 58.2612C98.8379 58.1037 98.1538 58.035 96.7486 57.9072L95.6997 57.8121V49.7794C95.492 49.7614 95.3033 49.7466 95.1157 49.7308V57.7624L93.8781 57.6726C92.4676 57.57 91.7814 57.5278 90.3856 57.457L89.2914 57.401V57.3957L87.6417 57.3397C86.1795 57.29 85.4648 57.2741 84.0016 57.2583L83.2806 57.2498L81.9492 57.2477C80.9435 57.2477 80.2646 57.2551 79.046 57.2794L77.8696 57.3027V55.7957C77.4869 56.2226 77.0389 56.5735 76.5297 56.8451C75.6421 57.3196 74.569 57.5944 73.3409 57.662C73.1532 57.6726 72.9688 57.6778 72.7895 57.6778C71.7839 57.6778 70.8847 57.513 70.1183 57.1875C69.1147 56.7605 68.3431 56.0145 67.8234 54.9703C67.7285 54.7791 67.6431 54.5772 67.5672 54.3648C67.4344 54.4958 67.2952 54.6195 67.1498 54.7357C66.4435 55.3001 65.6001 55.6382 64.644 55.7429C64.39 55.7703 64.1833 55.7936 63.9894 55.8158V58.2749L62.9742 58.3965C61.569 58.5645 60.8859 58.6543 59.4934 58.8519L58.1767 59.039V58.2126C57.3292 58.9978 56.1464 59.5262 54.6558 59.783C54.0328 59.8908 53.4193 59.9447 52.8332 59.9447C52.732 59.9447 52.6308 59.9425 52.5317 59.9404C52.2818 59.933 52.0446 59.914 51.8201 59.8844V60.1243L50.8914 60.3071C47.9324 60.8884 46.4903 61.2065 43.5449 61.9272L42.1155 62.277V48.9118L42.9925 48.6972C45.9389 47.9765 47.4706 47.6394 50.4423 47.0539L51.8201 46.7834V47.241C52.6107 46.6787 53.6238 46.2856 54.8435 46.0795C55.205 46.0183 55.6067 45.9813 56.0378 45.9696C56.1643 45.9665 56.2919 45.9644 56.4173 45.9644C56.7009 45.9644 56.9834 45.9728 57.2585 45.9918C57.598 46.014 57.9069 46.05 58.1778 46.0986V45.7192L59.1676 45.5786C61.2644 45.2817 62.3502 45.1453 64.45 44.9171C64.6546 44.8949 64.8559 44.8833 65.0488 44.8833C65.8658 44.8833 66.5868 45.0809 67.193 45.4719C67.6199 45.7477 67.9836 46.0933 68.2819 46.5044C68.7363 45.8312 69.3108 45.2954 69.9992 44.9044C70.9036 44.3908 71.9852 44.0959 73.2123 44.0283C73.3851 44.0188 73.5538 44.0146 73.7193 44.0146C74.7471 44.0146 75.6716 44.1985 76.4654 44.562C77.0009 44.8072 77.47 45.1432 77.8696 45.567V44.0061L78.9996 43.9839C80.2941 43.9586 81.1417 43.948 82.023 43.948C82.7008 43.948 83.4081 43.9543 84.3042 43.966C85.3193 43.9786 86.1932 44.2333 86.9037 44.7216V44.0199L88.096 44.059C90.6197 44.1435 93.1739 44.2946 95.6976 44.5081V44.5049L96.9562 44.6191C97.9777 44.711 98.6408 44.7755 99.462 44.8642L99.4588 44.8558L100.826 45.0154L101.517 45.0925V45.0957C102.787 45.2447 103.536 45.3419 104.9 45.5332L105.652 45.6378C105.652 45.6378 106.337 48.1287 106.543 48.8748C106.723 48.2756 107.44 45.9052 107.44 45.9052L108.44 46.0669C109.897 46.3025 110.651 46.4336 112.105 46.702L113.416 46.9451V46.9482L114.179 47.0994C115.621 47.3847 116.369 47.5421 117.815 47.8613L118.475 48.0071L118.669 48.6497C119.859 52.5957 121.045 56.5428 122.227 60.491L122.799 62.4038L120.844 61.9251L120.847 61.9283ZM89.2925 57.252V49.3704C89.1934 49.3662 89.0954 49.3619 88.9952 49.3577C88.9889 50.2835 88.7717 51.1152 88.349 51.8274C88.1434 52.1751 87.9126 52.4932 87.6585 52.7807L89.2914 57.252H89.2925ZM73.1532 51.8792C73.1733 51.8792 73.1943 51.8792 73.2154 51.8771C73.343 51.8697 73.4083 51.8475 73.4252 51.8391C73.4178 51.838 73.5517 51.5907 73.5517 50.7759C73.5517 50.2084 73.4885 49.9326 73.4516 49.8174C73.4379 49.8174 73.422 49.8164 73.4031 49.8164C73.3841 49.8164 73.3641 49.8164 73.344 49.8185C73.2196 49.8248 73.1564 49.8481 73.1416 49.8565C73.148 49.8565 73.0088 50.1017 73.0088 50.9334C73.0088 51.4882 73.0689 51.763 73.1058 51.8792C73.1195 51.8792 73.1353 51.8803 73.1543 51.8803L73.1532 51.8792Z" fill="#E73088"/>
<path d="M82.0262 45.0935C82.6998 45.0935 83.4019 45.0998 84.2927 45.1115C85.0981 45.122 85.7622 45.3154 86.2861 45.6885C86.81 46.0605 87.2001 46.5635 87.4573 47.1923C87.7145 47.8221 87.8431 48.5302 87.8431 49.3164C87.8431 50.0573 87.6808 50.7008 87.3561 51.2493C87.0314 51.7978 86.6403 52.248 86.1849 52.601C86.2914 52.6834 86.3747 52.7743 86.4326 52.8725C86.4906 52.9708 86.5391 53.0723 86.5781 53.1758C87.0209 54.3848 87.2412 54.9893 87.6839 56.2014C86.2176 56.1518 85.4839 56.1359 84.0175 56.119C83.6507 55.1373 83.4673 54.6469 83.1004 53.6662C83.0519 53.5288 82.9982 53.4348 82.9402 53.383C82.8822 53.3312 82.7989 53.3048 82.6925 53.3048C82.6345 53.3048 82.605 53.3048 82.547 53.3048V56.1084C82.3351 56.1084 82.138 56.1084 81.9535 56.1084C80.9099 56.1084 80.2215 56.1169 79.0261 56.1401V45.1294C80.2426 45.1062 81.1081 45.0946 82.0273 45.0946M83.4188 50.0784C83.9828 50.0784 84.2642 49.7983 84.2642 49.2319C84.2642 48.9127 84.1989 48.6834 84.0681 48.546C83.9374 48.4076 83.7361 48.3368 83.4641 48.3347C83.0973 48.3315 82.9138 48.3305 82.547 48.3305C82.547 49.0279 82.547 49.3767 82.547 50.0742C82.8906 50.0742 83.0625 50.0752 83.4051 50.0784C83.4093 50.0784 83.4135 50.0784 83.4177 50.0784M73.7215 45.1601C74.5891 45.1601 75.3439 45.3091 75.9838 45.6018C76.7301 45.9432 77.3025 46.5255 77.6999 47.3402C78.0974 48.1561 78.2966 49.2604 78.2966 50.6501C78.2966 52.0398 78.0974 53.1389 77.6999 53.9822C77.3025 54.8255 76.7301 55.4437 75.9838 55.8421C75.2374 56.2405 74.335 56.4656 73.2788 56.5238C73.1122 56.5333 72.9499 56.5375 72.7918 56.5375C71.9421 56.5375 71.2031 56.4065 70.5748 56.1391C69.8295 55.8221 69.2571 55.2662 68.8608 54.4672C68.4634 53.6683 68.2652 52.5798 68.2652 51.2007C68.2652 49.8216 68.4634 48.6845 68.8608 47.8253C69.2571 46.9672 69.8285 46.3225 70.5748 45.8988C71.3201 45.475 72.2214 45.2298 73.2788 45.1717C73.4295 45.1633 73.5771 45.159 73.7215 45.159M73.1533 53.0226C73.1944 53.0226 73.2366 53.0216 73.2798 53.0194C73.7932 52.9909 74.1601 52.8113 74.3772 52.4752C74.5954 52.1402 74.7051 51.5738 74.7051 50.7759C74.7051 49.978 74.5954 49.4211 74.3772 49.1072C74.1769 48.8187 73.8522 48.6729 73.4021 48.6729C73.3621 48.6729 73.3209 48.6739 73.2798 48.676C72.7654 48.7046 72.4007 48.8895 72.1824 49.2277C71.9642 49.5658 71.8557 50.1344 71.8557 50.9323C71.8557 51.7302 71.9642 52.2839 72.1824 52.5957C72.3827 52.881 72.7064 53.0226 73.1544 53.0226M88.0624 45.2034C90.8232 45.2953 93.5967 45.4665 96.3481 45.7138V48.6887C95.3951 48.6052 94.9186 48.5672 93.9657 48.4985C93.9657 51.1775 93.9657 53.8554 93.9657 56.5343C92.5594 56.4318 91.8553 56.3885 90.4479 56.3177V48.2818C89.4939 48.2332 89.0164 48.2132 88.0624 48.1783V45.2034ZM96.8562 45.7593C98.2614 45.8861 98.9645 45.958 100.368 46.1154V57.1261C98.9635 56.9687 98.2614 56.8968 96.8562 56.77C96.8562 53.0998 96.8562 49.4295 96.8562 45.7593ZM65.0542 46.0277C65.6477 46.0277 66.1537 46.163 66.569 46.4314C67.0919 46.7685 67.4809 47.2525 67.7381 47.8792C67.9942 48.5059 68.1229 49.2129 68.1229 49.9991C68.1229 50.7854 67.9753 51.5304 67.6801 52.2015C67.3849 52.8715 66.9685 53.42 66.432 53.848C65.8944 54.277 65.2587 54.5285 64.5239 54.6089C63.8514 54.6828 63.5141 54.7209 62.8415 54.8012C62.8415 55.7861 62.8415 56.2786 62.8415 57.2635C61.4384 57.4316 60.7374 57.5235 59.3364 57.7222C59.3364 54.0519 59.3364 50.3817 59.3364 46.7114C61.4321 46.4145 62.482 46.2834 64.5819 46.0541C64.7453 46.0362 64.9034 46.0277 65.0552 46.0277M62.8415 51.5706C63.1841 51.5294 63.3549 51.5093 63.6964 51.4702C63.9768 51.4385 64.1898 51.3233 64.3342 51.1246C64.4797 50.9259 64.5514 50.6681 64.5514 50.3489C64.5514 49.6979 64.3258 49.3703 63.8746 49.3703C63.8356 49.3703 63.7955 49.3725 63.7544 49.3777C63.3886 49.419 63.2062 49.4411 62.8404 49.4845C62.8404 50.3183 62.8404 50.7357 62.8404 51.5706M101.093 46.1989C102.554 46.3701 103.285 46.4631 104.743 46.6671C105.444 49.2129 105.794 50.4884 106.494 53.0416C107.201 50.6998 107.553 49.531 108.258 47.1965C109.715 47.4322 110.442 47.5579 111.896 47.8274C110.699 51.2895 109.506 54.7526 108.316 58.2167C106.865 57.9811 106.139 57.8722 104.685 57.6693C103.491 53.8448 102.294 50.0213 101.093 46.1989ZM56.4185 47.1088C56.6789 47.1088 56.935 47.1173 57.1859 47.1331C57.5475 47.1564 57.8532 47.1965 58.1041 47.2494C58.1041 48.4943 58.1041 49.1157 58.1041 50.3606C57.5738 50.1777 57.1058 50.0742 56.701 50.0467C56.5618 50.0372 56.428 50.0329 56.2994 50.0329C56.0558 50.0329 55.8334 50.0499 55.6321 50.0826C55.3917 50.1228 55.1461 50.1894 54.8952 50.2824C54.6443 50.3764 54.5199 50.5148 54.5199 50.6977C54.5199 50.8456 54.6306 50.9439 54.852 50.9915C55.0734 51.039 55.4255 51.1045 55.9062 51.1838C56.6736 51.3106 57.2555 51.5188 57.6403 51.8073C58.0261 52.0958 58.2843 52.4689 58.414 52.9222C58.5437 53.3766 58.609 53.9103 58.609 54.5264C58.609 55.5758 58.2612 56.4656 57.5675 57.2043C56.8739 57.943 55.8366 58.4207 54.4609 58.6585C53.9011 58.7547 53.3582 58.8033 52.8343 58.8033C52.7458 58.8033 52.6583 58.8022 52.5708 58.799C51.9657 58.78 51.4555 58.686 51.0433 58.5158C51.0433 57.2783 51.0433 56.659 51.0433 55.4215C51.4945 55.5959 52.0036 55.7153 52.5708 55.7819C52.8343 55.8125 53.0842 55.8284 53.3213 55.8284C53.5944 55.8284 53.8484 55.8083 54.0856 55.766C54.3745 55.7153 54.6 55.6339 54.7645 55.5209C54.9279 55.4078 55.0101 55.2715 55.0101 55.1119C55.0101 54.9069 54.8562 54.7727 54.5484 54.7124C54.2406 54.6511 53.8284 54.5602 53.3361 54.4292C52.7447 54.2717 52.2693 54.0657 51.9225 53.8342C51.5767 53.6028 51.329 53.2942 51.1803 52.9074C51.0317 52.5206 50.9569 52.0134 50.9569 51.3867C50.9569 49.0956 52.3136 47.6678 55.0386 47.2081C55.3464 47.1564 55.6911 47.1247 56.0717 47.1141C56.1876 47.1109 56.3025 47.1088 56.4174 47.1088M50.6691 48.1762C50.6691 49.3661 50.6691 49.9611 50.6691 51.151C49.0963 51.4607 48.3109 51.6245 46.7423 51.9732C46.7423 52.3695 46.7423 52.5682 46.7423 52.9645C48.0927 52.6644 48.7684 52.5217 50.122 52.2512C50.122 53.4823 50.122 54.0974 50.122 55.3285C48.7684 55.5991 48.0927 55.7417 46.7423 56.0419C46.7423 56.4382 46.7423 56.6368 46.7423 57.0331C48.3109 56.6855 49.0963 56.5206 50.6691 56.211C50.6691 57.4009 50.6691 57.9959 50.6691 59.1858C47.7016 59.7692 46.2215 60.0957 43.2709 60.8175C43.2709 57.1473 43.2709 53.477 43.2709 49.8068C46.2215 49.085 47.7016 48.7585 50.6691 48.1751M113.955 48.2205C115.401 48.5069 116.123 48.6581 117.565 48.9783C118.755 52.9233 119.94 56.8704 121.123 60.8175C119.679 60.4645 118.956 60.2965 117.508 59.9763C117.244 59.0971 117.112 58.6585 116.847 57.7803C115.98 57.5922 115.544 57.5013 114.676 57.3248C114.411 58.092 114.278 58.4757 114.014 59.2439C112.562 58.9554 111.836 58.8202 110.381 58.5655C111.57 55.1172 112.761 51.6689 113.957 48.2227M116.46 54.8762C116.179 53.9748 116.038 53.5246 115.756 52.6242C115.475 53.4062 115.334 53.7972 115.051 54.5814C115.615 54.6976 115.898 54.7558 116.46 54.8773M82.0273 42.8087C81.1397 42.8087 80.2847 42.8182 78.9807 42.8436L76.7196 42.888V43.4248C75.8288 43.0592 74.8221 42.8732 73.7236 42.8732C73.537 42.8732 73.3452 42.8785 73.1533 42.889C71.745 42.9662 70.4926 43.3117 69.43 43.9152C68.9915 44.1646 68.5899 44.4605 68.2293 44.8029C68.1007 44.7014 67.9668 44.6063 67.8266 44.5165C67.0307 44.0029 66.0978 43.7429 65.0531 43.7429C64.8181 43.7429 64.5735 43.7567 64.3279 43.7831C62.2122 44.0135 61.1179 44.1508 59.0075 44.4499L57.0267 44.731V44.8378C56.8254 44.8293 56.6219 44.8251 56.4174 44.8251C56.2825 44.8251 56.1454 44.8272 56.0084 44.8304C55.5224 44.8441 55.066 44.8864 54.6517 44.9561C54.0255 45.0618 53.4426 45.214 52.906 45.4084L50.22 45.9368C47.2293 46.5255 45.6871 46.8647 42.7175 47.5907L40.9634 48.0198V49.81V60.8207V63.7395L43.8233 63.0399C46.7444 62.3256 48.176 62.0096 51.1181 61.4315L52.848 61.0912C53.4974 61.0912 54.1731 61.0299 54.8573 60.9126C55.6542 60.7752 56.3784 60.5671 57.0267 60.2891V60.361L59.66 59.9879C61.0473 59.7914 61.7251 59.7026 63.1156 59.5367L65.1459 59.2936V57.2667V56.8334C65.8743 56.7119 66.5469 56.4741 67.1583 56.1211C67.7834 57.0796 68.6394 57.8057 69.6672 58.2421C70.578 58.6289 71.6301 58.8255 72.7928 58.8255C72.9931 58.8255 73.1997 58.8202 73.4074 58.8086C74.6471 58.7409 75.7582 58.4809 76.7185 58.036V58.4725L79.0704 58.427C80.2816 58.4038 80.9552 58.3964 81.9524 58.3964H82.5407L83.2628 58.3985L83.9891 58.407C85.4417 58.4228 86.1512 58.4387 87.6028 58.4883L88.9637 58.5338L90.3278 58.6035C91.7214 58.6743 92.4024 58.7166 93.7949 58.817L95.2212 58.9206L96.6443 59.0495C98.0369 59.1753 98.7157 59.2439 100.106 59.4004L102.673 59.6889V58.965L102.913 59.7343L104.363 59.9361C105.803 60.1369 106.505 60.2426 107.942 60.4751L108.958 60.64L109.978 60.8186C111.419 61.0711 112.123 61.2022 113.56 61.4875L115.542 61.8806L115.612 61.6777L115.685 61.9176L117.007 62.2093C118.441 62.5263 119.141 62.6891 120.571 63.0389L124.481 63.9953L123.335 60.1686C122.158 56.2384 120.961 52.2543 119.776 48.3252L119.389 47.0412L118.069 46.7484C116.803 46.4684 116.068 46.312 114.936 46.0858L114.944 46.0658L113.364 45.7741L112.431 45.5891L112.427 45.6008L112.32 45.5807C110.857 45.3101 110.099 45.1791 108.63 44.9413L106.63 44.6179L106.6 44.7205L106.57 44.6137L105.066 44.4034C104.096 44.2681 103.435 44.1794 102.675 44.0853V44.0737L100.996 43.8856L97.8345 43.5168L97.8461 43.5548L97.5488 43.5284C97.3959 43.5147 97.2357 43.4999 97.066 43.484L94.5497 43.2568V43.2726C92.4161 43.1099 90.2677 42.9915 88.1404 42.9207L85.7559 42.8415V42.9958C85.3057 42.8901 84.8282 42.8341 84.3243 42.8277C83.364 42.8151 82.6766 42.8098 82.0283 42.8098L82.0273 42.8087Z" fill="black"/>
<path d="M75.2816 50.7759C75.2816 51.6942 75.1446 52.3516 74.862 52.7849C74.6407 53.1251 74.1916 53.5415 73.3114 53.5901C73.2566 53.5933 73.2038 53.5944 73.1532 53.5944C72.3479 53.5944 71.923 53.2287 71.708 52.9212C71.4191 52.508 71.2779 51.8581 71.2779 50.9323C71.2779 50.4419 71.318 50.0277 71.397 49.68C70.5632 49.7307 69.7367 49.7857 68.9187 49.847C68.8681 50.2634 68.8428 50.7146 68.8428 51.2007C68.8428 52.4847 69.023 53.4992 69.3793 54.2147C69.7156 54.8921 70.1816 55.3486 70.8035 55.6139C71.4582 55.8929 72.2846 56.006 73.2471 55.9531C74.219 55.9003 75.0486 55.6932 75.7106 55.3391C76.3526 54.9957 76.8323 54.4736 77.1791 53.7402C77.5386 52.9772 77.7209 51.9373 77.7209 50.6501C77.7209 50.2031 77.6977 49.7899 77.6545 49.4073C76.8133 49.4306 75.9795 49.4591 75.1498 49.4929C75.2363 49.8427 75.2806 50.2665 75.2806 50.7759H75.2816Z" fill="url(#paint16_linear_4112_5870)"/>
<path d="M85.8285 52.1507C86.2259 51.8422 86.5717 51.4416 86.8574 50.9597C87.1199 50.5169 87.2537 49.9822 87.2622 49.3735C86.4568 49.3576 85.6461 49.346 84.8313 49.3397C84.787 50.1492 84.2568 50.6501 83.4176 50.6501H83.405C83.0582 50.648 82.8874 50.6469 82.5448 50.6459C82.2264 50.6459 81.9692 50.3891 81.9692 50.0741V49.3354C81.1754 49.3407 80.3859 49.3502 79.6016 49.364V55.5578C80.4944 55.542 81.1101 55.5367 81.9523 55.5367H81.9692V53.3048C81.9692 53.1526 82.0304 53.0067 82.1389 52.9C82.2475 52.7922 82.3898 52.7373 82.549 52.7341H82.6945C83.0065 52.7352 83.2089 52.8567 83.3228 52.9581C83.4577 53.0765 83.5589 53.2424 83.6432 53.477L84.4191 55.5526C85.3573 55.5642 85.9982 55.5769 86.85 55.6033L86.0341 53.3713C86.0088 53.3026 85.974 53.2318 85.9339 53.1621C85.9128 53.1272 85.877 53.0892 85.8296 53.0522C85.6894 52.9444 85.6071 52.7785 85.6071 52.602C85.6071 52.4266 85.6883 52.2596 85.8285 52.1518V52.1507Z" fill="url(#paint17_linear_4112_5870)"/>
<path d="M99.79 50.0329C99.011 49.9642 98.2267 49.8998 97.4319 49.8406V56.2479C98.3163 56.3293 98.933 56.3916 99.79 56.4857V50.0319V50.0329Z" fill="url(#paint18_linear_4112_5870)"/>
<path d="M107.926 57.5742C108.648 55.4744 109.372 53.3767 110.096 51.2779C109.321 51.1553 108.533 51.038 107.732 50.927C107.529 51.6034 107.313 52.3199 107.045 53.2055C106.972 53.4475 106.746 53.6134 106.492 53.6134H106.485C106.228 53.6102 106.003 53.438 105.936 53.1917C105.659 52.1793 105.436 51.3698 105.225 50.6005C104.491 50.5106 103.747 50.425 102.994 50.3447C103.705 52.6147 104.417 54.8837 105.126 57.1536C106.194 57.3037 106.874 57.4052 107.925 57.5742H107.926Z" fill="url(#paint19_linear_4112_5870)"/>
<path d="M113.631 58.5855L114.13 57.1398C114.224 56.8683 114.507 56.7055 114.791 56.7647C115.664 56.9412 116.099 57.0331 116.971 57.2223C117.175 57.2667 117.34 57.4178 117.4 57.6175L117.964 59.4923C118.873 59.6941 119.497 59.8378 120.284 60.027C119.566 57.6302 118.844 55.2334 118.123 52.8376C117.522 52.696 116.914 52.5565 116.289 52.4223C116.293 52.434 116.301 52.4435 116.306 52.4551L117.011 54.7082C117.071 54.9026 117.024 55.1129 116.885 55.263C116.775 55.3824 116.62 55.449 116.461 55.449C116.421 55.449 116.379 55.4448 116.339 55.4363C115.778 55.3158 115.497 55.2566 114.934 55.1415C114.771 55.1076 114.631 55.0062 114.548 54.8614C114.467 54.7177 114.452 54.5454 114.508 54.389L115.214 52.4318C115.243 52.3515 115.294 52.2849 115.352 52.2268C114.686 52.0905 114.011 51.9573 113.32 51.8295C112.595 53.9261 111.869 56.0228 111.146 58.1195C112.054 58.2812 112.698 58.4017 113.633 58.5855H113.631Z" fill="url(#paint20_linear_4112_5870)"/>
<path d="M54.3629 58.0952C55.6142 57.8796 56.5503 57.4484 57.1459 56.8144C57.7426 56.1792 58.0335 55.431 58.0335 54.5264C58.0335 53.9674 57.9755 53.4802 57.8596 53.0786C57.7636 52.7436 57.5781 52.4773 57.2924 52.2628C56.9888 52.0356 56.4765 51.857 55.8113 51.7471C55.3338 51.6678 54.9691 51.6012 54.7287 51.5494C54.7203 51.5473 54.715 51.5441 54.7066 51.5431C53.6355 51.7259 52.593 51.9204 51.5789 52.1222C51.6094 52.3463 51.6569 52.5407 51.7191 52.7024C51.8255 52.9782 51.9974 53.1938 52.2451 53.3587C52.5476 53.5605 52.9767 53.7391 53.4858 53.8754C53.8938 53.9843 54.2891 54.0762 54.6612 54.1491C55.5204 54.3203 55.5868 54.9269 55.5868 55.1098C55.5868 55.4553 55.4118 55.7671 55.0955 55.988C54.8594 56.1507 54.5621 56.2627 54.1858 56.3282C53.6935 56.4149 53.1316 56.4212 52.5034 56.3494C52.1945 56.3135 51.8993 56.2617 51.62 56.1951V58.1037C51.8983 58.1745 52.223 58.2157 52.5887 58.2273C53.1559 58.2442 53.7483 58.2009 54.3619 58.0952H54.3629Z" fill="url(#paint21_linear_4112_5870)"/>
<path d="M43.8486 60.0893C46.2184 59.5155 47.6447 59.2027 50.0935 58.7176V56.9084C48.9455 57.1366 48.1928 57.2973 46.8688 57.5911C46.698 57.6291 46.5188 57.5879 46.3828 57.4801C46.2458 57.3712 46.1667 57.2074 46.1667 57.0341V56.0418C46.1667 55.7744 46.3544 55.543 46.6179 55.4838C47.8155 55.2175 48.4743 55.077 49.5464 54.8614V52.9507C48.6229 53.1377 47.9788 53.2762 46.8699 53.5224C46.698 53.5605 46.5199 53.5192 46.3828 53.4104C46.3533 53.3871 46.328 53.3607 46.3048 53.3322C45.4562 53.5552 44.6371 53.7845 43.8497 54.0223V60.0883L43.8486 60.0893Z" fill="url(#paint22_linear_4112_5870)"/>
<path d="M93.3879 49.5922C92.6057 49.5521 91.8183 49.5161 91.0234 49.4855V55.7755C91.8994 55.822 92.5172 55.859 93.3879 55.9203V49.5922Z" fill="url(#paint23_linear_4112_5870)"/>
<path d="M65.1269 50.3489C65.1269 50.7896 65.0162 51.1637 64.799 51.4606C64.5598 51.7872 64.2003 51.988 63.7607 52.0377C63.4202 52.0768 63.2494 52.0968 62.9089 52.137C62.8857 52.1402 62.8625 52.1412 62.8394 52.1412C62.6992 52.1412 62.5632 52.0905 62.4567 51.9975C62.3334 51.8886 62.2627 51.7333 62.2627 51.5695V50.4725C61.4679 50.5634 60.6836 50.6596 59.9109 50.761V57.0638C60.7605 56.9454 61.3762 56.8651 62.2627 56.7573V54.8012C62.2627 54.5116 62.4809 54.2685 62.7708 54.2337C63.4455 54.1533 63.7839 54.1142 64.4586 54.0403C65.09 53.9716 65.616 53.7623 66.0683 53.402C66.5363 53.0279 66.8905 52.5608 67.1498 51.9721C67.4113 51.3772 67.5441 50.7135 67.5441 49.9991C67.5441 49.9843 67.542 49.9695 67.542 49.9547C66.7261 50.0223 65.9175 50.0942 65.1195 50.1714C65.1227 50.2295 65.1269 50.2865 65.1269 50.35V50.3489Z" fill="url(#paint24_linear_4112_5870)"/>
<path d="M44.9364 63.5504C44.2723 63.3824 43.9402 63.3 43.2761 63.1394C68.8417 56.2797 95.5658 56.2797 121.13 63.1394C120.414 63.2852 120.055 63.3602 119.337 63.5156C94.8574 57.2742 69.411 57.2858 44.9364 63.5504Z" fill="#E73088"/>
<path d="M123.621 57.5742L124.48 63.9943L122.408 62.8328V57.0754L123.621 57.5742Z" fill="black"/>
<path d="M81.2314 25.9392L77.3489 27.9926V32.225L81.2314 34.8226L78.5137 31.35C78.5137 31.35 78.6887 28.6478 78.655 28.4449C78.6202 28.242 81.2314 25.9392 81.2314 25.9392Z" fill="white"/>
<path d="M77.9993 31.9798V28.1458L81.2313 25.9392L84.4623 28.1458V31.9798L81.2313 34.8226L77.9993 31.9798Z" fill="black"/>
<path d="M79.7166 30.9759V29.433L81.2314 28.3878L82.7452 29.433V30.9759L81.2314 32.0221L79.7166 30.9759Z" fill="#E73088"/>
<path d="M78.9207 29.0071L79.7165 29.4329L81.2314 28.3878V27.4124L78.9207 29.0071Z" fill="#934773"/>
<path d="M83.5411 29.0071L82.7452 29.4329L81.2314 28.3878V27.4124L83.5411 29.0071Z" fill="white"/>
<path d="M78.9207 31.4017L79.7165 30.9758L81.2314 32.021V32.9975L78.9207 31.4017Z" fill="white"/>
<path d="M83.5411 31.4017L82.7452 30.9758L81.2314 32.021V32.9975L83.5411 31.4017Z" fill="#E55CA3"/>
<path d="M78.9207 29.0071L79.7165 29.433V30.9759L78.9207 31.4018V29.0071Z" fill="#E55CA3"/>
<path d="M83.541 29.0071L82.7451 29.433V30.9759L83.541 31.4018V29.0071Z" fill="#934773"/>
</g>
<defs>
<linearGradient id="paint0_linear_4112_5870" x1="55.1736" y1="35.8869" x2="55.1736" y2="33.694" gradientUnits="userSpaceOnUse">
<stop offset="0.43" stop-opacity="0"/>
<stop offset="1" stop-color="#20201E" stop-opacity="0.3"/>
</linearGradient>
<linearGradient id="paint1_linear_4112_5870" x1="55.2694" y1="44.7502" x2="55.2694" y2="30.2341" gradientUnits="userSpaceOnUse">
<stop offset="0.43" stop-opacity="0"/>
<stop offset="1" stop-color="#20201E" stop-opacity="0.3"/>
</linearGradient>
<linearGradient id="paint2_linear_4112_5870" x1="88.4271" y1="39.5433" x2="88.4271" y2="28.8232" gradientUnits="userSpaceOnUse">
<stop offset="0.43" stop-opacity="0"/>
<stop offset="1" stop-color="#20201E" stop-opacity="0.3"/>
</linearGradient>
<linearGradient id="paint3_linear_4112_5870" x1="67.9626" y1="42.1208" x2="67.9626" y2="29.2004" gradientUnits="userSpaceOnUse">
<stop offset="0.43" stop-opacity="0"/>
<stop offset="1" stop-color="#20201E" stop-opacity="0.3"/>
</linearGradient>
<linearGradient id="paint4_linear_4112_5870" x1="47.0796" y1="40.9076" x2="47.0796" y2="31.7347" gradientUnits="userSpaceOnUse">
<stop offset="0.43" stop-opacity="0"/>
<stop offset="1" stop-color="#20201E" stop-opacity="0.3"/>
</linearGradient>
<linearGradient id="paint5_linear_4112_5870" x1="81.1649" y1="33.5735" x2="81.1649" y2="31.3331" gradientUnits="userSpaceOnUse">
<stop offset="0.43" stop-opacity="0"/>
<stop offset="1" stop-color="#20201E" stop-opacity="0.3"/>
</linearGradient>
<linearGradient id="paint6_linear_4112_5870" x1="82.3488" y1="51.3233" x2="82.3488" y2="29.4382" gradientUnits="userSpaceOnUse">
<stop offset="0.43" stop-opacity="0"/>
<stop offset="1" stop-color="#20201E" stop-opacity="0.3"/>
</linearGradient>
<linearGradient id="paint7_linear_4112_5870" x1="94.9681" y1="42.162" x2="94.9681" y2="29.0715" gradientUnits="userSpaceOnUse">
<stop offset="0.43" stop-opacity="0"/>
<stop offset="1" stop-color="#20201E" stop-opacity="0.3"/>
</linearGradient>
<linearGradient id="paint8_linear_4112_5870" x1="123.924" y1="48.5577" x2="123.924" y2="32.987" gradientUnits="userSpaceOnUse">
<stop offset="0.43" stop-opacity="0"/>
<stop offset="1" stop-color="#20201E" stop-opacity="0.3"/>
</linearGradient>
<linearGradient id="paint9_linear_4112_5870" x1="123.903" y1="39.1068" x2="123.903" y2="36.9922" gradientUnits="userSpaceOnUse">
<stop offset="0.43" stop-opacity="0"/>
<stop offset="1" stop-color="#20201E" stop-opacity="0.3"/>
</linearGradient>
<linearGradient id="paint10_linear_4112_5870" x1="116.863" y1="42.8954" x2="116.863" y2="32.0929" gradientUnits="userSpaceOnUse">
<stop offset="0.43" stop-opacity="0"/>
<stop offset="1" stop-color="#20201E" stop-opacity="0.3"/>
</linearGradient>
<linearGradient id="paint11_linear_4112_5870" x1="108.361" y1="44.4765" x2="108.361" y2="30.0555" gradientUnits="userSpaceOnUse">
<stop offset="0.43" stop-opacity="0"/>
<stop offset="1" stop-color="#20201E" stop-opacity="0.3"/>
</linearGradient>
<linearGradient id="paint12_linear_4112_5870" x1="39.7246" y1="33.5936" x2="39.7246" y2="33.3347" gradientUnits="userSpaceOnUse">
<stop offset="0.43" stop-opacity="0"/>
<stop offset="1" stop-color="#20201E" stop-opacity="0.3"/>
</linearGradient>
<linearGradient id="paint13_linear_4112_5870" x1="81.2334" y1="41.4762" x2="81.2334" y2="28.8317" gradientUnits="userSpaceOnUse">
<stop offset="0.43" stop-opacity="0"/>
<stop offset="1" stop-color="#20201E" stop-opacity="0.3"/>
</linearGradient>
<linearGradient id="paint14_linear_4112_5870" x1="39.8364" y1="48.5937" x2="39.8364" y2="32.7798" gradientUnits="userSpaceOnUse">
<stop offset="0.43" stop-opacity="0"/>
<stop offset="1" stop-color="#20201E" stop-opacity="0.3"/>
</linearGradient>
<linearGradient id="paint15_linear_4112_5870" x1="39.8037" y1="43.371" x2="39.8037" y2="38.9346" gradientUnits="userSpaceOnUse">
<stop offset="0.43" stop-opacity="0"/>
<stop offset="1" stop-color="#20201E" stop-opacity="0.3"/>
</linearGradient>
<linearGradient id="paint16_linear_4112_5870" x1="73.2819" y1="55.9658" x2="73.2819" y2="49.4073" gradientUnits="userSpaceOnUse">
<stop offset="0.51" stop-color="white" stop-opacity="0"/>
<stop offset="1" stop-color="white" stop-opacity="0.25"/>
</linearGradient>
<linearGradient id="paint17_linear_4112_5870" x1="83.4324" y1="55.6022" x2="83.4324" y2="49.3344" gradientUnits="userSpaceOnUse">
<stop offset="0.51" stop-color="white" stop-opacity="0"/>
<stop offset="1" stop-color="white" stop-opacity="0.25"/>
</linearGradient>
<linearGradient id="paint18_linear_4112_5870" x1="98.6104" y1="56.4867" x2="98.6104" y2="49.8406" gradientUnits="userSpaceOnUse">
<stop offset="0.51" stop-color="white" stop-opacity="0"/>
<stop offset="1" stop-color="white" stop-opacity="0.25"/>
</linearGradient>
<linearGradient id="paint19_linear_4112_5870" x1="106.545" y1="57.5742" x2="106.545" y2="50.3447" gradientUnits="userSpaceOnUse">
<stop offset="0.51" stop-color="white" stop-opacity="0"/>
<stop offset="1" stop-color="white" stop-opacity="0.25"/>
</linearGradient>
<linearGradient id="paint20_linear_4112_5870" x1="115.714" y1="60.0259" x2="115.714" y2="51.8284" gradientUnits="userSpaceOnUse">
<stop offset="0.51" stop-color="white" stop-opacity="0"/>
<stop offset="1" stop-color="white" stop-opacity="0.25"/>
</linearGradient>
<linearGradient id="paint21_linear_4112_5870" x1="54.8067" y1="58.2315" x2="54.8067" y2="51.5431" gradientUnits="userSpaceOnUse">
<stop offset="0.51" stop-color="white" stop-opacity="0"/>
<stop offset="1" stop-color="white" stop-opacity="0.25"/>
</linearGradient>
<linearGradient id="paint22_linear_4112_5870" x1="46.9711" y1="60.0893" x2="46.9711" y2="52.9507" gradientUnits="userSpaceOnUse">
<stop offset="0.51" stop-color="white" stop-opacity="0"/>
<stop offset="1" stop-color="white" stop-opacity="0.25"/>
</linearGradient>
<linearGradient id="paint23_linear_4112_5870" x1="92.2052" y1="55.9203" x2="92.2052" y2="49.4855" gradientUnits="userSpaceOnUse">
<stop offset="0.51" stop-color="white" stop-opacity="0"/>
<stop offset="1" stop-color="white" stop-opacity="0.25"/>
</linearGradient>
<linearGradient id="paint24_linear_4112_5870" x1="63.727" y1="57.0638" x2="63.727" y2="49.9547" gradientUnits="userSpaceOnUse">
<stop offset="0.51" stop-color="white" stop-opacity="0"/>
<stop offset="1" stop-color="white" stop-opacity="0.25"/>
</linearGradient>
<clipPath id="clip0_4112_5870">
<rect width="105" height="48.66" fill="white" transform="translate(30 16.67)"/>
</clipPath>
</defs>
</svg>
